<?xml version="1.0" encoding="utf-8"?>
<svg viewBox="9.958 -22.637 120.843 71.906" fill="none" xmlns="http://www.w3.org/2000/svg" class="hidden md:block lg:hidden xl:block md:h-8">
  <path d="M72.824 35.602C72.2839 35.602 72.0039 35.3619 72.0039 34.9019C72.0039 34.7819 72.0239 34.6819 72.0439 34.6419L72.5239 32.2618C72.5639 31.9618 72.7039 31.7417 72.904 31.5817C73.124 31.4217 73.364 31.3417 73.624 31.3417H73.704C74.324 31.3017 74.9041 31.0217 75.4441 30.5417C75.9841 30.0617 76.3441 29.4816 76.4842 28.8216L79.6843 13.8208H78.2442C77.7242 13.8208 77.4642 13.5808 77.4642 13.0807C77.4642 12.9407 77.4842 12.8207 77.5042 12.7407L77.9042 10.8006C78.0442 10.1406 78.4443 9.80055 79.0843 9.80055H80.5644L81.2244 6.56038C81.4444 5.58032 81.8245 4.68027 82.3645 3.88023C82.9045 3.08019 83.5445 2.42015 84.3046 1.88012C85.0646 1.34009 85.9047 0.92007 86.8047 0.640054C87.7248 0.360039 88.6648 0.220032 89.6649 0.220032C90.2049 0.220032 90.4849 0.460044 90.4849 0.960071V1.26009L89.9249 3.84023C89.8849 4.12024 89.7649 4.34025 89.5649 4.54026C89.3849 4.72027 89.1448 4.82028 88.8848 4.82028C88.1648 4.82028 87.5448 5.00029 87.0247 5.36031C86.5047 5.72033 86.1647 6.30036 85.9847 7.12041L85.3846 9.82055H87.3447C87.8648 9.82055 88.1248 10.0606 88.1248 10.5206C88.1248 10.6406 88.1048 10.7406 88.0848 10.8206L87.6848 12.7607C87.6248 13.0807 87.5048 13.3407 87.2847 13.5408C87.0647 13.7408 86.8047 13.8408 86.5047 13.8408H84.5846L81.6444 27.6815C81.5644 27.9615 81.5044 28.2416 81.4444 28.5216C81.3844 28.8016 81.3044 29.0816 81.2044 29.3616C80.9044 30.3017 80.4844 31.1417 79.9443 31.9018C79.4043 32.6618 78.7643 33.3218 78.0042 33.8619C77.2642 34.4219 76.4442 34.8419 75.5441 35.1619C74.6841 35.4419 73.764 35.602 72.824 35.602Z" fill="#3185FF"/>
  <path d="M99.3654 1.50004L93.9451 27.0014C93.8251 27.6615 93.405 28.0015 92.685 28.0015H89.7048C89.0448 28.0015 88.7648 27.6615 88.8848 27.0014L94.3051 1.50004C94.3851 1.18002 94.5251 0.92001 94.7251 0.719999C94.9451 0.519988 95.2051 0.419983 95.5652 0.419983H98.5453C98.7653 0.419983 98.9853 0.519988 99.1854 0.719999C99.3854 0.92001 99.4454 1.18002 99.3654 1.50004Z" fill="#3185FF"/>
  <path d="M107.766 10.6806L104.226 27.1615C104.106 27.7215 103.746 28.0215 103.146 28.0215H100.025C99.4253 28.0215 99.2053 27.7415 99.3253 27.1615L102.845 10.6806C102.886 10.4005 103.006 10.2005 103.206 10.0405C103.386 9.88052 103.626 9.80051 103.886 9.80051H107.006C107.226 9.80051 107.426 9.88052 107.586 10.0405C107.746 10.2005 107.806 10.4005 107.766 10.6806ZM103.746 4.36022C103.926 3.56017 104.326 2.90014 104.986 2.34011C105.646 1.78008 106.366 1.50006 107.166 1.50006C107.986 1.50006 108.606 1.78008 109.046 2.34011C109.486 2.90014 109.606 3.58017 109.426 4.36022C109.246 5.16026 108.846 5.8203 108.186 6.36033C107.526 6.90036 106.786 7.18037 105.986 7.18037C105.186 7.18037 104.586 6.90036 104.146 6.36033C103.706 5.8203 103.586 5.16026 103.746 4.36022Z" fill="#3185FF"/>
  <path d="M108.606 34.3019L113.586 10.8206C113.666 10.5006 113.806 10.2406 114.006 10.0406C114.226 9.84056 114.486 9.74055 114.846 9.70055H116.666C117.066 9.70055 117.386 9.74056 117.646 9.82056C117.906 9.90056 118.066 10.1806 118.106 10.6606L118.066 11.8807C118.866 11.0806 119.666 10.4606 120.527 10.0206C121.367 9.58055 122.347 9.36053 123.467 9.36053C124.707 9.36053 125.807 9.60055 126.747 10.1006C127.707 10.6006 128.467 11.2606 129.067 12.1007C129.667 12.9407 130.047 13.9408 130.247 15.0808C130.447 16.2209 130.407 17.441 130.127 18.761C129.847 20.0811 129.387 21.3012 128.707 22.4412C128.027 23.5813 127.207 24.5814 126.247 25.4214C125.287 26.2815 124.227 26.9415 123.047 27.4215C121.867 27.9015 120.647 28.1416 119.386 28.1416C118.446 28.1416 117.646 27.9615 116.986 27.5815C116.326 27.2015 115.806 26.7615 115.406 26.2415L113.726 34.2619C113.646 34.5819 113.486 34.8419 113.246 35.0619C113.006 35.2819 112.686 35.382 112.326 35.382H109.586C109.246 35.382 108.966 35.2819 108.786 35.0819C108.586 34.9219 108.546 34.6419 108.606 34.3019ZM116.606 18.661C116.466 19.3211 116.426 19.9411 116.526 20.5211C116.626 21.0812 116.826 21.5812 117.126 22.0012C117.426 22.4212 117.806 22.7613 118.266 23.0013C118.726 23.2413 119.246 23.3813 119.806 23.3813C120.367 23.3813 120.947 23.2613 121.487 23.0013C122.047 22.7613 122.567 22.4212 123.027 22.0012C123.487 21.5812 123.907 21.1012 124.227 20.5411C124.567 19.9811 124.787 19.3811 124.907 18.741C125.047 18.101 125.087 17.501 124.987 16.9409C124.887 16.3809 124.687 15.9009 124.407 15.4809C124.127 15.0608 123.747 14.7408 123.287 14.5008C122.827 14.2608 122.307 14.1408 121.747 14.1408C121.187 14.1408 120.607 14.2608 120.067 14.5008C119.506 14.7408 118.986 15.0608 118.526 15.4609C118.046 15.8609 117.646 16.3609 117.306 16.9009C116.946 17.461 116.726 18.041 116.606 18.661Z" fill="#3185FF"/>
  <g id="R">
    <g id="R_1_" transform="matrix(1, 0, 0, 1, 9.555957, -22.498848)">
      <g>
        <path class="st0" d="M69.3,67.3C59,57.8,50.1,50.1,40.7,42.2c5.6-0.2,11.7-0.5,17.3-1c0.6-0.1,1.2-0.3,1.7-0.7 c2.1-1.7,5.1-4.7,7-7.3c0.3-0.5,0.5-1,0.3-1.6c-2-9-5.4-19.8-10.3-29.4c-0.4-0.7-1.2-1.2-2-1.2C36.6,2.1,19.3,4.6,4,7.7 C3,7.9,2.3,8.8,2.3,9.8C2.6,28.4,3.6,47.6,5,66.5c0.1,1,0.8,1.8,1.8,2c6.1,0.9,12.1,1.7,20.3,2.2c0.7,0,1.3-0.7,1-1.4 c-2.8-7.9-7.2-23.6-7.9-26.4c0.7,0,1-0.1,1.6-0.1c3.7,7.5,9.3,17.9,13.3,26.5c0.5,1.1,1.6,1.8,2.8,1.8c9.5,0.2,19.9-0.2,30.8-1.8 C69.6,69,70,67.9,69.3,67.3z M34.1,26.8c-3.6,0.4-9.1,0.8-12.6,1c-0.3-2.2-0.6-5.4-0.7-7.7c4.3,0.1,8.7,0.2,13.3,0.6 C34.1,22.7,34.1,24.7,34.1,26.8z" style="fill: rgb(226, 35, 26);"/>
      </g>
      <g>
        <path class="st1" d="M57.6,37.5c1.8-1.6,3.9-3.6,5.3-5.9C61,23.2,58,14,53.9,5.4C38.2,6.5,21.2,8.7,6.4,11.5c0.6,19.8,1.5,36,3,53 c4.7,0.7,7.9,1.1,13.2,1.5C20,56.8,18,49.3,16.1,40c2.5-0.1,5.1-0.2,7.7-0.3c6.2,10,9.8,17.2,15.8,27c7.4,0,14.2-0.2,21.1-0.8 c-9.9-9.7-19.1-18.3-28.5-26.6C41.2,38.8,50.3,38.2,57.6,37.5z M17.9,31.6c-0.7-5-0.9-10-1.1-15c7,0,14.4,0.3,21.3,0.9 c0.2,3.4,0.2,9,0,12.5C31.6,30.7,24.8,31.2,17.9,31.6z" style="fill: rgb(255, 255, 255);"/>
      </g>
    </g>
  </g>
</svg>